HIERARCHY
ROOT Hips
{
	OFFSET 0.000000 100.481300 0.000000
	CHANNELS 6 Xposition Yposition Zposition Xrotation Yrotation Zrotation 
	JOINT Spine
	{
		OFFSET -0.279200 12.230698 -2.892100
		CHANNELS 3 Xrotation Yrotation Zrotation
		JOINT Spine1
		{
			OFFSET -0.232667 10.192268 -1.242267
			CHANNELS 3 Xrotation Yrotation Zrotation
			JOINT Spine1_split
			{
				OFFSET -0.232667 10.192268 -1.242267
				CHANNELS 3 Xrotation Yrotation Zrotation
				JOINT Spine2
				{
					OFFSET -0.232667 10.192268 -1.242267
					CHANNELS 3 Xrotation Yrotation Zrotation
					JOINT Neck
					{
						OFFSET -0.418800 17.814194 8.416900
						CHANNELS 3 Xrotation Yrotation Zrotation
						JOINT Head
						{
							OFFSET 0.000000 7.031097 3.806800
							CHANNELS 3 Xrotation Yrotation Zrotation
							JOINT HeadTop_End
							{
								OFFSET 0.000000 24.646606 12.978600
								CHANNELS 3 Xrotation Yrotation Zrotation
								End Site
								{
									OFFSET 0.000000 0.000000 0.000000
								}
							}
						}
					}
					JOINT LeftShoulder
					{
						OFFSET 8.476499 7.247704 -3.868750
						CHANNELS 3 Xrotation Yrotation Zrotation
						JOINT LeftShoulder_split
						{
							OFFSET 8.476499 7.247704 -3.868750
							CHANNELS 3 Xrotation Yrotation Zrotation
							JOINT LeftArm
							{
								OFFSET 9.308998 -2.777710 0.208600
								CHANNELS 3 Xrotation Yrotation Zrotation
								JOINT LeftForeArm
								{
									OFFSET 29.972298 0.000000 0.000000
									CHANNELS 3 Xrotation Yrotation Zrotation
									JOINT LeftHand
									{
										OFFSET 26.026505 0.000000 0.000000
										CHANNELS 3 Xrotation Yrotation Zrotation
										JOINT LeftHandThumb1
										{
											OFFSET 12.240501 -7.147949 9.207150
											CHANNELS 3 Xrotation Yrotation Zrotation
											JOINT LeftHandThumb2
											{
												OFFSET 4.138618 -2.389435 2.389433
												CHANNELS 3 Xrotation Yrotation Zrotation
												JOINT LeftHandThumb3
												{
													OFFSET 2.726913 -1.574387 1.574386
													CHANNELS 3 Xrotation Yrotation Zrotation
													JOINT LeftHandThumb4
													{
														OFFSET 3.941010 -2.275345 2.275342
														CHANNELS 3 Xrotation Yrotation Zrotation
														End Site
														{
															OFFSET 0.000000 0.000000 0.000000
														}
													}
												}
											}
										}
										JOINT LeftHandIndex1
										{
											OFFSET 24.424698 -1.985611 5.953459
											CHANNELS 3 Xrotation Yrotation Zrotation
											JOINT LeftHandIndex2
											{
												OFFSET 6.426697 0.000000 0.000000
												CHANNELS 3 Xrotation Yrotation Zrotation
												JOINT LeftHandIndex3
												{
													OFFSET 5.337898 0.000000 0.000000
													CHANNELS 3 Xrotation Yrotation Zrotation
													JOINT LeftHandIndex4
													{
														OFFSET 4.409401 0.000000 0.000000
														CHANNELS 3 Xrotation Yrotation Zrotation
														End Site
														{
															OFFSET 0.000000 0.000000 0.000000
														}
													}
												}
											}
										}
										JOINT LeftHandMiddle1
										{
											OFFSET 23.810104 0.000000 0.000000
											CHANNELS 3 Xrotation Yrotation Zrotation
											JOINT LeftHandMiddle2
											{
												OFFSET 7.176498 0.000000 0.000000
												CHANNELS 3 Xrotation Yrotation Zrotation
												JOINT LeftHandMiddle3
												{
													OFFSET 6.774902 0.000000 0.000000
													CHANNELS 3 Xrotation Yrotation Zrotation
													JOINT LeftHandMiddle4
													{
														OFFSET 5.403328 0.000000 0.000000
														CHANNELS 3 Xrotation Yrotation Zrotation
														End Site
														{
															OFFSET 0.000000 0.000000 0.000000
														}
													}
												}
											}
										}
										JOINT LeftHandRing1
										{
											OFFSET 22.908401 -0.839279 -6.020567
											CHANNELS 3 Xrotation Yrotation Zrotation
											JOINT LeftHandRing2
											{
												OFFSET 6.337502 0.000000 0.000000
												CHANNELS 3 Xrotation Yrotation Zrotation
												JOINT LeftHandRing3
												{
													OFFSET 5.779297 0.000000 0.000000
													CHANNELS 3 Xrotation Yrotation Zrotation
													JOINT LeftHandRing4
													{
														OFFSET 4.965698 0.000000 0.000000
														CHANNELS 3 Xrotation Yrotation Zrotation
														End Site
														{
															OFFSET 0.000000 0.000000 0.000000
														}
													}
												}
											}
										}
										JOINT LeftHandPinky1
										{
											OFFSET 20.037003 -1.530319 -10.950146
											CHANNELS 3 Xrotation Yrotation Zrotation
											JOINT LeftHandPinky2
											{
												OFFSET 5.254700 0.000000 0.000000
												CHANNELS 3 Xrotation Yrotation Zrotation
												JOINT LeftHandPinky3
												{
													OFFSET 4.810204 0.000000 0.000000
													CHANNELS 3 Xrotation Yrotation Zrotation
													JOINT LeftHandPinky4
													{
														OFFSET 3.647202 0.000000 0.000000
														CHANNELS 3 Xrotation Yrotation Zrotation
														End Site
														{
															OFFSET 0.000000 0.000000 0.000000
														}
													}
												}
											}
										}
									}
								}
							}
						}
					}
					JOINT RightShoulder
					{
						OFFSET -7.570500 7.247704 -3.868750
						CHANNELS 3 Xrotation Yrotation Zrotation
						JOINT RightShoulder_split
						{
							OFFSET -7.570500 7.247704 -3.868750
							CHANNELS 3 Xrotation Yrotation Zrotation
							JOINT RightArm
							{
								OFFSET -9.308998 -2.777710 0.208500
								CHANNELS 3 Xrotation Yrotation Zrotation
								JOINT RightForeArm
								{
									OFFSET -29.972300 0.000000 0.000000
									CHANNELS 3 Xrotation Yrotation Zrotation
									JOINT RightHand
									{
										OFFSET -26.026505 0.000000 0.000000
										CHANNELS 3 Xrotation Yrotation Zrotation
										JOINT RightHandThumb1
										{
											OFFSET -12.240601 -7.148026 9.207092
											CHANNELS 3 Xrotation Yrotation Zrotation
											JOINT RightHandThumb2
											{
												OFFSET -4.138618 -2.389435 2.389433
												CHANNELS 3 Xrotation Yrotation Zrotation
												JOINT RightHandThumb3
												{
													OFFSET -2.726974 -1.574417 1.574421
													CHANNELS 3 Xrotation Yrotation Zrotation
													JOINT RightHandThumb4
													{
														OFFSET -3.941010 -2.275345 2.275343
														CHANNELS 3 Xrotation Yrotation Zrotation
														End Site
														{
															OFFSET 0.000000 0.000000 0.000000
														}
													}
												}
											}
										}
										JOINT RightHandIndex1
										{
											OFFSET -24.424698 -1.985657 5.953444
											CHANNELS 3 Xrotation Yrotation Zrotation
											JOINT RightHandIndex2
											{
												OFFSET -6.426697 0.000000 0.000000
												CHANNELS 3 Xrotation Yrotation Zrotation
												JOINT RightHandIndex3
												{
													OFFSET -5.337898 0.000000 0.000000
													CHANNELS 3 Xrotation Yrotation Zrotation
													JOINT RightHandIndex4
													{
														OFFSET -4.409401 0.000000 0.000000
														CHANNELS 3 Xrotation Yrotation Zrotation
														End Site
														{
															OFFSET 0.000000 0.000000 0.000000
														}
													}
												}
											}
										}
										JOINT RightHandMiddle1
										{
											OFFSET -23.810097 0.000000 0.000000
											CHANNELS 3 Xrotation Yrotation Zrotation
											JOINT RightHandMiddle2
											{
												OFFSET -7.176498 0.000000 0.000000
												CHANNELS 3 Xrotation Yrotation Zrotation
												JOINT RightHandMiddle3
												{
													OFFSET -6.774902 0.000000 0.000000
													CHANNELS 3 Xrotation Yrotation Zrotation
													JOINT RightHandMiddle4
													{
														OFFSET -5.403328 0.000000 0.000000
														CHANNELS 3 Xrotation Yrotation Zrotation
														End Site
														{
															OFFSET 0.000000 0.000000 0.000000
														}
													}
												}
											}
										}
										JOINT RightHandRing1
										{
											OFFSET -22.908302 -0.839325 -6.020576
											CHANNELS 3 Xrotation Yrotation Zrotation
											JOINT RightHandRing2
											{
												OFFSET -6.337502 0.000000 0.000000
												CHANNELS 3 Xrotation Yrotation Zrotation
												JOINT RightHandRing3
												{
													OFFSET -5.779297 0.000000 0.000000
													CHANNELS 3 Xrotation Yrotation Zrotation
													JOINT RightHandRing4
													{
														OFFSET -4.965698 0.000000 0.000000
														CHANNELS 3 Xrotation Yrotation Zrotation
														End Site
														{
															OFFSET 0.000000 0.000000 0.000000
														}
													}
												}
											}
										}
										JOINT RightHandPinky1
										{
											OFFSET -20.037003 -1.530334 -10.950259
											CHANNELS 3 Xrotation Yrotation Zrotation
											JOINT RightHandPinky2
											{
												OFFSET -5.254700 0.000000 0.000000
												CHANNELS 3 Xrotation Yrotation Zrotation
												JOINT RightHandPinky3
												{
													OFFSET -4.810204 0.000000 0.000000
													CHANNELS 3 Xrotation Yrotation Zrotation
													JOINT RightHandPinky4
													{
														OFFSET -3.647202 0.000000 0.000000
														CHANNELS 3 Xrotation Yrotation Zrotation
														End Site
														{
															OFFSET 0.000000 0.000000 0.000000
														}
													}
												}
											}
										}
									}
								}
							}
						}
					}
				}
			}
		}
	}
	JOINT LeftUpLeg
	{
		OFFSET 15.427100 -6.655098 0.678600
		CHANNELS 3 Xrotation Yrotation Zrotation
		JOINT LeftLeg
		{
			OFFSET 4.081073 -39.591068 13.024000
			CHANNELS 3 Xrotation Yrotation Zrotation
			JOINT LeftFoot
			{
				OFFSET -4.081074 -37.707932 -15.979700
				CHANNELS 3 Xrotation Yrotation Zrotation
				JOINT LeftToeBase
				{
					OFFSET 5.346399 -15.068900 20.645000
					CHANNELS 3 Xrotation Yrotation Zrotation
					JOINT LeftToe_End
					{
						OFFSET 2.754700 0.931300 11.300900
						CHANNELS 3 Xrotation Yrotation Zrotation
						End Site
						{
							OFFSET 0.000000 0.000000 0.000000
						}
					}
				}
			}
		}
	}
	JOINT RightUpLeg
	{
		OFFSET -15.569500 -6.655098 0.678600
		CHANNELS 3 Xrotation Yrotation Zrotation
		JOINT RightLeg
		{
			OFFSET -4.081825 -39.591045 13.023800
			CHANNELS 3 Xrotation Yrotation Zrotation
			JOINT RightFoot
			{
				OFFSET 4.081824 -37.707954 -15.979600
				CHANNELS 3 Xrotation Yrotation Zrotation
				JOINT RightToeBase
				{
					OFFSET -5.346400 -15.068900 20.645000
					CHANNELS 3 Xrotation Yrotation Zrotation
					JOINT RightToe_End
					{
						OFFSET -2.754700 0.931300 11.300900
						CHANNELS 3 Xrotation Yrotation Zrotation
						End Site
						{
							OFFSET 0.000000 0.000000 0.000000
						}
					}
				}
			}
		}
	}
}
MOTION
Frames: 4
Frame Time: 0.016667
11.956778 36.241455 -6.175737 1.861087 -33.580482 9.492255 3.596790 -1.069491 -4.657350 2.855673 -4.198782 -2.072993 0.000000 0.000000 0.000000 2.773306 -4.260260 -2.035172 0.447420 2.821357 2.164897 0.278337 15.546819 4.247278 0.000001 -0.000001 -0.000000 1.530508 -0.690788 -2.366977 0.000000 0.000000 0.000000 -3.234545 -12.111233 -50.675380 0.000567 -87.973362 0.000520 -53.085094 20.313621 41.451861 -1.540054 3.690189 6.142343 3.939057 7.948713 0.746816 -0.579465 1.574995 2.538709 0.000001 0.000003 0.000000 1.016545 3.605833 -31.478699 1.016528 3.605840 -31.478709 0.193844 1.625529 -13.600720 -0.000003 -0.000001 -0.000001 1.299283 4.030459 -35.722893 1.301554 4.033590 -35.754995 0.332603 2.118108 -17.846586 -0.000002 -0.000000 -0.000001 1.751609 4.592888 -41.733699 1.751614 4.592889 -41.733696 0.588558 2.790120 -23.818365 -0.000000 -0.000001 0.000000 4.911443 7.752494 -44.887887 2.046411 0.814408 -45.446962 0.761378 3.152220 -27.151600 -0.000003 0.000001 -0.000001 5.585467 17.928717 2.373358 0.000000 0.000000 0.000000 -33.414655 -16.065396 41.084626 0.006757 92.810257 -0.006802 44.885353 -28.255026 9.382469 -1.849243 -3.581793 -6.586139 4.637208 -8.634119 -0.225408 -1.273758 0.137315 -2.094866 -0.000001 -0.000000 -0.000000 0.081185 -1.061618 8.746199 0.001257 -0.132367 1.086257 0.000002 0.002671 -0.021898 -0.000001 -0.000000 0.000000 0.493228 -2.576624 21.670003 0.002546 -0.188681 1.548421 -0.000000 0.002670 -0.021896 0.000001 -0.000001 0.000002 0.682828 -3.009786 25.559229 0.002550 -0.188685 1.548414 0.000000 0.002673 -0.021898 0.000000 -0.000003 -0.000001 1.013752 -3.620333 31.277127 0.002549 -0.188688 1.548430 0.000001 0.002675 -0.021898 -0.000000 0.000002 0.000001 -78.955846 -20.630329 54.828790 66.977839 12.396056 -6.547594 42.128972 -3.252092 -10.927901 -0.002164 -0.000008 -0.002693 -0.000000 -0.000001 0.000000 -2.373065 4.624015 -26.497227 102.144714 15.529405 1.564097 15.294773 2.216346 16.205459 50.293951 -3.045778 -9.226523 0.000001 0.000001 0.000000 
11.930427 36.247192 -6.180743 1.928780 -33.576578 9.564379 3.590126 -1.022136 -4.794535 2.844911 -4.152758 -2.149814 0.000000 0.000000 0.000000 2.768606 -4.212015 -2.111294 0.463157 2.837771 2.357654 0.012651 15.814932 4.562045 0.000001 -0.000002 -0.000001 1.530165 -0.744391 -1.917311 0.000000 0.000000 0.000000 -3.271987 -12.105438 -51.033029 -0.000929 -88.077379 -0.000903 -52.890116 20.116157 41.398723 -1.540053 3.690180 6.142343 3.939061 7.948713 0.746816 -0.579461 1.574991 2.538710 0.000000 0.000001 -0.000000 1.016546 3.605831 -31.478696 1.016528 3.605840 -31.478706 0.193847 1.625530 -13.600723 -0.000004 -0.000001 -0.000001 1.299284 4.030456 -35.722893 1.301555 4.033586 -35.754995 0.332603 2.118107 -17.846589 0.000001 -0.000001 0.000000 1.751610 4.592887 -41.733699 1.751616 4.592889 -41.733706 0.588559 2.790121 -23.818371 0.000005 -0.000002 0.000001 4.911443 7.752493 -44.887887 2.046409 0.814406 -45.446962 0.761372 3.152214 -27.151604 -0.000003 -0.000000 0.000001 5.560239 17.956434 2.651592 0.000000 0.000000 0.000000 -32.494427 -15.150550 39.610285 0.000219 94.692909 -0.000188 40.622086 -28.211593 8.823204 -1.849245 -3.581791 -6.586139 4.637207 -8.634115 -0.225410 -1.273760 0.137320 -2.094867 0.000002 0.000002 0.000001 0.081135 -1.061269 8.743206 0.000150 -0.046006 0.377552 0.000002 0.001005 -0.008213 -0.000002 0.000001 0.000000 0.505645 -2.607629 21.944565 0.000307 -0.065743 0.539485 0.000004 0.000996 -0.008218 -0.000001 0.000001 0.000002 0.699978 -3.045334 25.883929 0.000306 -0.065746 0.539482 -0.000003 0.001004 -0.008210 -0.000000 0.000002 -0.000000 1.039057 -3.661585 31.675668 0.000311 -0.065751 0.539483 0.000005 0.001001 -0.008220 0.000001 0.000000 0.000004 -78.972143 -20.552452 54.893243 66.930294 12.400407 -6.596137 42.158113 -3.175542 -10.893884 -0.002109 -0.000004 -0.002622 0.000000 -0.000000 -0.000000 -2.446940 4.650411 -26.461427 102.203911 15.504326 1.569356 15.176684 2.187760 16.075530 50.481727 -3.023458 -9.121905 -0.000002 -0.000001 -0.000001 
11.902352 36.251640 -6.186908 2.002743 -33.566295 9.646467 3.577175 -0.982674 -4.929678 2.829096 -4.112357 -2.227857 0.000000 0.000000 0.000000 2.758118 -4.169726 -2.188754 0.482735 2.858645 2.531981 -0.284942 16.079351 4.861551 -0.000000 0.000002 0.000001 1.512195 -0.744084 -1.544893 0.000000 0.000000 0.000000 -3.279719 -12.155373 -51.329841 -0.002374 -88.114105 -0.002373 -52.731608 19.892625 41.299183 -1.540052 3.690187 6.142344 3.939058 7.948713 0.746816 -0.579463 1.574994 2.538710 -0.000001 -0.000000 -0.000000 1.016546 3.605832 -31.478696 1.016530 3.605840 -31.478709 0.193850 1.625532 -13.600722 -0.000001 0.000002 -0.000001 1.299283 4.030460 -35.722890 1.301554 4.033587 -35.754995 0.332604 2.118107 -17.846586 -0.000003 -0.000002 0.000000 1.751611 4.592890 -41.733702 1.751615 4.592889 -41.733699 0.588556 2.790119 -23.818372 0.000005 0.000000 0.000002 4.911442 7.752499 -44.887891 2.046411 0.814407 -45.446959 0.761377 3.152217 -27.151600 -0.000003 -0.000002 0.000001 5.540486 17.992971 2.918228 0.000000 0.000000 0.000000 -31.912905 -14.467702 38.297656 0.000319 96.455228 -0.000296 36.803108 -27.544616 9.079542 -1.849244 -3.581791 -6.586138 4.637209 -8.634115 -0.225409 -1.273757 0.137317 -2.094869 -0.000000 0.000002 -0.000000 0.081078 -1.060907 8.740247 0.000002 -0.003763 0.030855 -0.000001 -0.002742 0.022518 0.000001 -0.000004 -0.000001 0.514996 -2.630689 22.149264 0.000002 -0.003842 0.031514 -0.000001 -0.002736 0.022526 0.000002 -0.000004 -0.000001 0.712888 -3.071766 26.125998 0.000002 -0.003843 0.031515 0.000003 -0.002748 0.022513 0.000001 -0.000002 -0.000001 1.058111 -3.692222 31.972768 0.000003 -0.003848 0.031515 -0.000002 -0.002745 0.022522 0.000002 -0.000001 0.000001 -79.000085 -20.465321 54.952181 66.883261 12.409609 -6.645224 42.180144 -3.127481 -10.852954 -0.002086 0.000003 -0.002621 0.000000 -0.000001 -0.000000 -2.530977 4.660678 -26.424439 102.254434 15.488593 1.569461 15.084816 2.164851 15.971246 50.664011 -3.001647 -9.007802 0.000000 -0.000002 -0.000001 
11.871558 36.256325 -6.194461 2.075213 -33.543592 9.728785 3.560513 -0.954006 -5.062167 2.810493 -4.080796 -2.306022 0.000000 0.000000 0.000000 2.744170 -4.136566 -2.266376 0.495816 2.875333 2.696921 -0.557785 16.320426 5.115394 -0.000000 -0.000003 0.000000 1.480361 -0.701459 -1.238073 0.000000 0.000000 0.000000 -3.264500 -12.231477 -51.554326 -0.006145 -88.164854 -0.006225 -52.644100 19.692574 41.206166 -1.540052 3.690186 6.142343 3.939062 7.948712 0.746816 -0.579465 1.574993 2.538711 0.000001 -0.000002 0.000000 1.016548 3.605831 -31.478699 1.016529 3.605837 -31.478709 0.193849 1.625532 -13.600723 0.000002 -0.000002 0.000000 1.299283 4.030460 -35.722893 1.301557 4.033591 -35.754995 0.332598 2.118104 -17.846584 -0.000001 0.000000 0.000000 1.751611 4.592886 -41.733702 1.751617 4.592889 -41.733706 0.588558 2.790119 -23.818369 -0.000002 -0.000002 0.000000 4.911444 7.752496 -44.887887 2.046410 0.814408 -45.446959 0.761375 3.152217 -27.151600 -0.000004 0.000003 -0.000003 5.526698 18.040669 3.182611 0.000000 0.000000 0.000000 -31.850924 -14.060277 37.299547 0.000182 98.091659 -0.000153 34.080260 -26.275731 10.628202 -1.849243 -3.581790 -6.586140 4.637213 -8.634118 -0.225410 -1.273758 0.137317 -2.094868 -0.000002 -0.000001 0.000001 0.081028 -1.060573 8.737469 0.000003 0.003398 0.000031 0.000001 -0.008199 0.067373 -0.000000 -0.000000 -0.000000 0.521043 -2.645491 22.280707 0.000004 0.008577 0.000020 0.000004 -0.008210 0.067372 0.000001 0.000002 -0.000001 0.721253 -3.088729 26.281444 0.000002 0.008584 0.000040 0.000002 -0.008198 0.067377 -0.000001 -0.000000 0.000002 1.070434 -3.711845 32.163566 0.000011 0.008579 0.000017 -0.000002 -0.008212 0.067379 0.000001 -0.000001 0.000000 -79.024100 -20.380776 55.008018 66.836311 12.425045 -6.707600 42.195580 -3.110554 -10.806864 -0.002083 -0.000004 -0.002575 0.000000 -0.000000 -0.000000 -2.615809 4.647770 -26.382359 102.288291 15.475769 1.564412 15.029372 2.149951 15.897508 50.823813 -2.981709 -8.893916 -0.000000 0.000001 -0.000000 
